Coordinates
version=1
nRows=9
nColumns=63
inDegrees=yes

Units are S.I. units (second, meters, Newtons, ...)
If the header above contains a line with 'inDegrees', this indicates whether rotational values are in degrees (yes) or radians (no).

endheader
time	pelvis_tilt	pelvis_list	pelvis_rotation	pelvis_tx	pelvis_ty	pelvis_tz	hip_flexion_r	hip_adduction_r	hip_rotation_r	knee_angle_r	knee_angle_r_beta	ankle_angle_r	subtalar_angle_r	mtp_angle_r	hip_flexion_l	hip_adduction_l	hip_rotation_l	knee_angle_l	knee_angle_l_beta	ankle_angle_l	subtalar_angle_l	mtp_angle_l	L5_S1_Flex_Ext	L5_S1_Lat_Bending	L5_S1_axial_rotation	L4_L5_Flex_Ext	L4_L5_Lat_Bending	L4_L5_axial_rotation	L3_L4_Flex_Ext	L3_L4_Lat_Bending	L3_L4_axial_rotation	L2_L3_Flex_Ext	L2_L3_Lat_Bending	L2_L3_axial_rotation	L1_L2_Flex_Ext	L1_L2_Lat_Bending	L1_L2_axial_rotation	L1_T12_Flex_Ext	L1_T12_Lat_Bending	L1_T12_axial_rotation	Abs_r3	Abs_r2	Abs_r1	Abs_t1	Abs_t2	neck_flexion	neck_bending	neck_rotation	arm_flex_r	arm_add_r	arm_rot_r	elbow_flex_r	pro_sup_r	wrist_flex_r	wrist_dev_r	arm_flex_l	arm_add_l	arm_rot_l	elbow_flex_l	pro_sup_l	wrist_flex_l	wrist_dev_l
0.000000	-0.041356	-4.988638	83.723558	0.185659	0.852666	0.717146	6.172918	0.625879	-8.941100	17.092378	0.298318	28.998083	15.351876	0.000000	1.162405	-1.700977	-9.688001	10.451891	0.182420	26.120921	-4.456029	0.000000	-0.140279	0.371563	-0.989166	-0.260511	0.494179	-1.050989	-0.230464	0.903418	-1.050989	-0.160324	0.903418	-0.865520	-0.130263	0.757691	-0.803697	-0.080155	0.575551	-0.741875	-1.001996	4.203194	-5.501445	0.000000	0.000000	16.712841	5.518711	-32.007257	-12.855784	-15.738040	15.579401	39.399701	81.280787	-3.575483	0.765004	0.361306	-11.261444	34.103107	26.679948	81.841027	-7.985954	3.247960
0.016667	-0.324000	-4.817625	83.668386	0.185888	0.852408	0.716078	5.751606	0.350818	-8.825890	16.751047	0.292361	30.167347	15.890269	0.000000	0.751836	-1.309966	-9.184432	9.828732	0.171544	26.116799	-4.981547	0.000000	-0.141162	0.336346	-1.013222	-0.262153	0.447340	-1.076548	-0.231916	0.817792	-1.076548	-0.161334	0.817792	-0.886569	-0.131083	0.685877	-0.823243	-0.080660	0.521000	-0.759916	-1.008308	3.804816	-5.635235	0.000000	0.000000	16.584619	5.131062	-32.231321	-12.647121	-15.642893	16.002064	38.907193	82.249659	-3.059023	-0.276422	0.136191	-11.417138	34.254845	26.681338	82.746600	-8.117564	3.537192
0.033333	-0.537821	-4.700846	83.645357	0.186070	0.852171	0.715340	5.447300	0.140219	-8.777440	16.494840	0.287889	31.058447	16.349172	0.000000	0.429690	-1.009136	-8.725246	9.279216	0.161953	26.109629	-5.421833	0.000000	-0.142971	0.309176	-1.038191	-0.265511	0.411204	-1.103078	-0.234887	0.751729	-1.103078	-0.163401	0.751729	-0.908417	-0.132763	0.630471	-0.843530	-0.081694	0.478913	-0.778643	-1.021226	3.497456	-5.774106	0.000000	0.000000	16.598718	4.968340	-32.235213	-12.418763	-15.563135	16.424951	38.446349	83.066504	-2.700522	-1.142321	-0.049568	-11.541273	34.261559	26.716436	83.486229	-8.223856	3.769661
0.050000	-0.688993	-4.633242	83.650373	0.186211	0.851954	0.714905	5.249939	-0.011223	-8.786365	16.316127	0.284770	31.700954	16.732456	0.000000	0.189157	-0.790823	-8.312176	8.800054	0.153590	26.100639	-5.780445	0.000000	-0.145596	0.289319	-1.063797	-0.270387	0.384795	-1.130284	-0.239200	0.703451	-1.130284	-0.166402	0.703451	-0.930822	-0.135201	0.589980	-0.864335	-0.083194	0.448156	-0.797848	-1.039980	3.272840	-5.916520	0.000000	0.000000	16.738617	5.005992	-32.038449	-12.174054	-15.497561	16.844756	38.017230	83.741168	-2.482952	-1.848905	-0.199126	-11.636700	34.140629	26.781187	84.072096	-8.306060	3.952014
0.066667	-0.783687	-4.609755	83.679336	0.186315	0.851754	0.714748	5.149464	-0.108811	-8.843275	16.207277	0.282870	32.124443	17.043996	0.000000	0.023425	-0.647362	-7.946953	8.387959	0.146398	26.091057	-6.060943	0.000000	-0.148931	0.276047	-1.089764	-0.276580	0.367142	-1.157875	-0.244679	0.671179	-1.157875	-0.170213	0.671179	-0.953544	-0.138297	0.562914	-0.885434	-0.085099	0.427596	-0.817323	-1.063800	3.122693	-6.060943	0.000000	0.000000	16.987796	5.219464	-31.660544	-11.916341	-15.444964	17.258175	37.619899	84.283498	-2.389287	-2.412383	-0.315639	-11.706274	33.909434	26.871540	84.516384	-8.365407	4.090892
0.083333	-0.828074	-4.625327	83.728146	0.186389	0.851572	0.714841	5.135816	-0.157851	-8.938784	16.160657	0.282057	32.358483	17.287666	0.000000	-0.074314	-0.571089	-7.631309	8.039643	0.140318	26.082110	-6.266887	0.000000	-0.152867	0.268625	-1.115816	-0.283890	0.357272	-1.185555	-0.251146	0.653135	-1.185555	-0.174712	0.653135	-0.976339	-0.141953	0.547781	-0.906601	-0.087348	0.416101	-0.836862	-1.091917	3.038743	-6.205836	0.000000	0.000000	17.329734	5.584201	-31.121014	-11.648968	-15.404141	17.661905	37.254419	84.703342	-2.402499	-2.848967	-0.402261	-11.752845	33.585356	26.983441	84.831275	-8.403126	4.192941
0.100000	-0.828326	-4.674901	83.792707	0.186438	0.851404	0.715158	5.198934	-0.163645	-9.063503	16.168638	0.282196	32.432649	17.467338	0.000000	-0.110873	-0.554341	-7.366977	7.751819	0.135295	26.075026	-6.401838	0.000000	-0.157298	0.266324	-1.141677	-0.292117	0.354211	-1.213032	-0.258424	0.647541	-1.213032	-0.179775	0.647541	-0.998967	-0.146066	0.543088	-0.927612	-0.089880	0.412536	-0.856258	-1.123561	3.012713	-6.349664	0.000000	0.000000	17.747910	6.075652	-30.439375	-11.375281	-15.373884	18.052641	36.920851	85.010547	-2.505561	-3.174866	-0.462147	-11.779268	33.185774	27.112837	85.028952	-8.420446	4.264803
0.116667	-0.790614	-4.753418	83.868918	0.186468	0.851249	0.715673	5.328759	-0.131500	-9.208047	16.223587	0.283155	32.376511	17.586886	0.000000	-0.093062	-0.589451	-7.155688	7.521198	0.131270	26.071034	-6.469356	0.000000	-0.162114	0.268412	-1.167069	-0.301061	0.356988	-1.240011	-0.266337	0.652617	-1.240011	-0.185280	0.652617	-1.021186	-0.150539	0.547346	-0.948244	-0.092632	0.415770	-0.875302	-1.157962	3.036331	-6.490889	0.000000	0.000000	18.225804	6.669261	-29.635142	-11.098624	-15.352988	18.427078	36.619259	85.214959	-2.681444	-3.406292	-0.498452	-11.788395	32.728069	27.255674	85.121598	-8.418598	4.313124
0.133333	-0.721111	-4.855821	83.952682	0.186484	0.851106	0.716359	5.515231	-0.066718	-9.363026	16.317874	0.284801	32.219643	17.650184	0.000000	-0.027691	-0.668757	-6.999175	7.344492	0.128186	26.071362	-6.473000	0.000000	-0.167208	0.274157	-1.191718	-0.310523	0.364629	-1.266200	-0.274707	0.666586	-1.266200	-0.191102	0.666586	-1.042753	-0.155270	0.559062	-0.968271	-0.095543	0.424670	-0.893788	-1.194352	3.101322	-6.627976	0.000000	0.000000	18.746896	7.340475	-28.727831	-10.822343	-15.340249	18.781913	36.349704	85.326426	-2.913121	-3.559454	-0.514331	-11.783079	32.229621	27.407900	85.121396	-8.398810	4.344547
